<?xml version="1.0" encoding="UTF-8" standalone="no"?>
<!-- Created with Inkscape (http://www.inkscape.org/) -->

<svg
   width="44"
   height="44"
   viewBox="0 0 11.641666 11.641667"
   version="1.1"
   id="svg856"
   inkscape:version="1.1.2 (0a00cf5339, 2022-02-04)"
   sodipodi:docname="InvertedBgWhiteIcon44x44.svg"
   xmlns:inkscape="http://www.inkscape.org/namespaces/inkscape"
   xmlns:sodipodi="http://sodipodi.sourceforge.net/DTD/sodipodi-0.dtd"
   xmlns="http://www.w3.org/2000/svg"
   xmlns:svg="http://www.w3.org/2000/svg">
  <sodipodi:namedview
     id="namedview858"
     pagecolor="#ffffff"
     bordercolor="#666666"
     borderopacity="1.0"
     inkscape:pageshadow="2"
     inkscape:pageopacity="0.0"
     inkscape:pagecheckerboard="0"
     inkscape:document-units="mm"
     showgrid="false"
     units="px"
     inkscape:zoom="91.451401"
     inkscape:cx="23.39494"
     inkscape:cy="5.0518635"
     inkscape:window-width="1920"
     inkscape:window-height="1011"
     inkscape:window-x="0"
     inkscape:window-y="0"
     inkscape:window-maximized="1"
     inkscape:current-layer="g3734" />
  <defs
     id="defs853">
    <clipPath
       clipPathUnits="userSpaceOnUse"
       id="clipPath2033">
      <rect
         style="fill:#a855f7;stroke-width:0.0920922"
         id="rect2035"
         width="8.0377388"
         height="14.178463"
         x="8.5150852"
         y="-4.0148983"
         transform="rotate(19.53108)" />
    </clipPath>
  </defs>
  <g
     inkscape:groupmode="layer"
     id="layer2"
     inkscape:label="Layer 2"
     sodipodi:insensitive="true"
     style="display:none">
    <rect
       style="fill:#8504b1;stroke:none;stroke-width:0.321869;stroke-miterlimit:4;stroke-dasharray:none;stroke-opacity:1"
       id="rect4746"
       width="11.641666"
       height="11.641666"
       x="-5.5511151e-17"
       y="-5.5511151e-17" />
  </g>
  <g
     inkscape:label="Layer 1"
     inkscape:groupmode="layer"
     id="layer1"
     style="display:inline">
    <g
       id="g3734"
       transform="matrix(-1.0012791,0.29135032,0.30280343,1.0406398,10.666786,-2.2590599)">
      <path
         style="display:inline;opacity:0;fill:#ffdf8a;fill-opacity:1;stroke:#ffe6ab;stroke-width:0.71999;stroke-miterlimit:4;stroke-dasharray:none;stroke-opacity:1"
         d="M -0.14186431,6.5458006 C -0.18530206,6.2584307 -0.19266353,5.7023664 -0.15707746,5.3965919 -0.03355897,4.335231 0.38130541,3.4134266 1.10915,2.5831076 1.245361,2.4277193 1.5819098,2.1089152 1.7564849,1.969904 2.6246698,1.2785825 3.6280991,0.86943741 4.7765459,0.73848421 c 0.1470388,-0.0167654 0.7077237,-0.0364719 0.695208,-0.0244326 -0.00327,0.003141 -0.052949,0.0237729 -0.1104025,0.0458408 C 4.8510348,0.95591891 4.2801056,1.3305907 3.8843996,1.7291413 3.7641769,1.850228 3.7372267,1.8980887 3.7372267,1.9905045 c 0,0.1083163 0.054449,0.1908268 0.1586139,0.2403582 0.037591,0.017873 0.063924,0.021332 0.1368208,0.017966 0.084741,-0.00392 0.096731,-0.00782 0.1957633,-0.06382 C 4.441244,2.0646661 4.8385343,1.920272 5.1460479,1.8514992 5.6098842,1.7477666 6.0852739,1.7271031 6.4284077,1.79576 6.83264,1.876642 7.2112702,2.0743675 7.5217266,2.3667038 7.9475257,2.7676521 8.1492342,3.292176 8.0853835,3.8324438 8.043701,4.1851354 7.8781142,4.7017847 7.7030496,5.0253653 7.5241493,5.356037 7.2557982,5.6338878 7.0223881,5.7301235 6.937085,5.7652925 6.5484425,5.8250835 6.2340007,5.8514131 6.0469758,5.8670741 5.7389373,5.8595531 5.6618956,5.8374491 l -0.053479,-0.015344 -0.00841,-0.078194 C 5.5737868,5.5005186 5.3970802,5.3242208 5.1051839,5.2502448 c -0.1382652,-0.035041 -0.4194284,-0.0344 -0.5663166,0.00128 -0.1469463,0.035705 -0.2187668,0.06744 -0.2659232,0.1175003 -0.068333,0.072539 -0.073996,0.09691 -0.073678,0.3170032 1.916e-4,0.1325631 -0.00376,0.1965438 -0.011844,0.1918849 C 4.180341,5.8738232 4.1764453,5.8318222 4.1780664,5.77691 4.1818752,5.6480329 4.164742,5.6386064 4.0300922,5.695513 3.9870259,5.713715 3.9441882,5.725886 3.9348958,5.722564 3.9243277,5.718774 3.9125323,5.684656 3.9033815,5.631319 3.8953455,5.584457 3.8833064,5.539885 3.8766416,5.532271 3.8547598,5.507275 3.8137921,5.517678 3.7378687,5.567507 c -0.041132,0.026996 -0.082009,0.046498 -0.09084,0.04334 -0.00883,-0.00317 -0.031622,-0.043938 -0.050644,-0.09062 -0.03123,-0.076634 -0.037922,-0.08519 -0.06894,-0.088103 -0.028111,-0.00264 -0.046159,0.00792 -0.099312,0.058151 -0.035724,0.033758 -0.073329,0.06138 -0.083563,0.06138 -0.010225,0 -0.039829,-0.032433 -0.065769,-0.072073 C 3.2312705,5.406948 3.2074156,5.3899 3.1692491,5.401299 3.1578109,5.404719 3.12723,5.439943 3.1012926,5.479582 3.075352,5.519222 3.0457592,5.551655 3.0355238,5.551655 3.025299,5.551655 2.9878687,5.524241 2.9523675,5.490733 2.8581893,5.401849 2.8225276,5.410302 2.779242,5.531771 2.768824,5.560981 2.756638,5.584884 2.752146,5.584884 2.738189,5.584884 2.655272,5.5292 2.655272,5.519826 2.655272,5.514946 2.679635,5.48967 2.709408,5.463655 2.780268,5.401751 2.777532,5.37677 2.696864,5.3491298 2.603948,5.3172928 2.600614,5.3101238 2.64914,5.2465064 2.714922,5.1602694 2.705167,5.1430268 2.580997,5.1260299 2.514485,5.1169299 2.510367,5.1031479 2.550921,5.0253523 2.587942,4.9543273 2.574495,4.9378963 2.475778,4.9335403 c -0.041806,-0.00184 -0.07984,-0.0069 -0.08452,-0.011254 -0.00469,-0.00436 -2.962e-4,-0.037206 0.00973,-0.073022 0.016469,-0.058784 0.016443,-0.0668 -2.601e-4,-0.08237 -0.016077,-0.014985 -0.027923,-0.015437 -0.090236,-0.00344 -0.039451,0.00758 -0.076948,0.010803 -0.083326,0.00713 -0.00637,-0.00368 -0.011597,-0.040745 -0.011597,-0.08238 0,-0.093228 -0.01253,-0.1006346 -0.1041326,-0.061548 -0.079882,0.034085 -0.092235,0.027432 -0.103374,-0.055661 -0.011354,-0.084726 -0.032271,-0.092709 -0.1146647,-0.043778 -0.035231,0.020923 -0.069875,0.038171 -0.076982,0.038325 -0.0071,1.531e-4 -0.023093,-0.027591 -0.035515,-0.061663 -0.034892,-0.09568 -0.069143,-0.102276 -0.1349222,-0.025984 -0.020687,0.023991 -0.045216,0.043624 -0.05451,0.043624 -0.00929,0 -0.035715,-0.027414 -0.05871,-0.060922 -0.056557,-0.082406 -0.080656,-0.079489 -0.1387192,0.016803 -0.014632,0.024264 -0.03212,0.044119 -0.038863,0.044119 -0.00673,0 -0.03725,-0.022942 -0.067791,-0.050983 -0.071631,-0.065761 -0.093462,-0.060816 -0.1286511,0.029144 -0.014233,0.036382 -0.031019,0.066148 -0.037305,0.066148 -0.0063,0 -0.039875,-0.017604 -0.074645,-0.039123 -0.037899,-0.023454 -0.0708512,-0.036391 -0.0822797,-0.032304 -0.0184507,0.00658 -0.0228646,0.018687 -0.03928,0.107549 C 0.9209974,4.6248623 0.91315,4.6461353 0.9077941,4.6492173 0.9024511,4.6522973 0.867792,4.6423573 0.8308006,4.6270983 0.7368788,4.5883823 0.72036656,4.5982873 0.71576682,4.6961003 l -0.00353,0.074647 -0.047537,-0.00471 c -0.0261445,-0.0026 -0.0662517,-0.00507 -0.0891291,-0.00554 -0.0409108,-8.034e-4 -0.0415781,-8.93e-5 -0.0405986,0.043485 5.3881e-4,0.024367 0.003229,0.061753 0.005944,0.083076 l 0.004946,0.03877 -0.0800878,0.00328 c -0.10494046,0.00429 -0.11556615,0.019677 -0.0740291,0.1072207 0.0163607,0.034482 0.0270393,0.066776 0.0237304,0.071765 -0.003305,0.00498 -0.0261294,0.012302 -0.0507117,0.016247 -0.0953391,0.015299 -0.10830616,0.019413 -0.11538635,0.036613 -0.0044,0.010677 0.009766,0.041754 0.0355092,0.077883 0.0235523,0.033064 0.0404473,0.065888 0.037544,0.072939 -0.002908,0.00704 -0.0352781,0.022325 -0.0719423,0.03394 -0.0917077,0.029051 -0.0965488,0.050101 -0.026713,0.1161872 0.0300838,0.028468 0.0546895,0.056575 0.0546777,0.062457 -1.169e-5,0.00589 -0.0254138,0.025436 -0.0564483,0.043449 -0.0956283,0.055505 -0.0966318,0.069478 -0.008886,0.1237765 0.0359486,0.022247 0.0653611,0.046986 0.0653611,0.054974 0,0.00797 -0.0212907,0.030471 -0.0473074,0.04996 -0.0514252,0.038519 -0.0684486,0.069761 -0.0495629,0.09097 0.006616,0.00744 0.0418283,0.022968 0.0782265,0.034498 0.0364014,0.01153 0.0661787,0.026455 0.0661787,0.033161 0,0.00669 -0.0188841,0.038331 -0.0419676,0.070278 -0.0546745,0.075675 -0.0451299,0.097417 0.0475102,0.1082041 0.0891495,0.01038 0.0962864,0.021898 0.0597155,0.09635 -0.0420009,0.085512 -0.0340625,0.097059 0.0667334,0.097059 0.0450533,0 0.081916,0.0026 0.081916,0.00578 0,0.017165 -0.0651358,0.093916 -0.0796994,0.093916 -0.00942,0 -0.044005,-0.027414 -0.0768573,-0.060922 -0.0398347,-0.040633 -0.0689897,-0.060922 -0.0875445,-0.060922 -0.0330325,0 -0.0377114,0.00595 -0.0783534,0.099567 -0.0172206,0.039667 -0.0393227,0.073621 -0.0491176,0.075455 -0.00979,0.00184 -0.048733,-0.016858 -0.08652947,-0.041537 -0.10876087,-0.071007 -0.13745308,-0.060787 -0.15392142,0.054818 -0.0047733,0.033505 -0.01359967,0.069646 -0.01961167,0.080307 -0.0195606,0.034676 -0.04266703,0.021921 -0.05016607,-0.027691 z"
         id="path4932" />
      <path
         style="display:inline;opacity:0;fill:#ffdf8a;fill-opacity:1;stroke:#ffe6ab;stroke-width:0.71999;stroke-miterlimit:4;stroke-dasharray:none;stroke-opacity:1"
         d="M -0.14186431,6.5458006 C -0.18530206,6.2584307 -0.19266353,5.7023664 -0.15707746,5.3965919 -0.03355897,4.335231 0.38130541,3.4134266 1.10915,2.5831076 1.245361,2.4277193 1.5819098,2.1089152 1.7564849,1.969904 2.6246698,1.2785825 3.6280991,0.86943741 4.7765459,0.73848421 c 0.1470388,-0.0167654 0.7077237,-0.0364719 0.695208,-0.0244326 -0.00327,0.003141 -0.052949,0.0237729 -0.1104025,0.0458408 C 4.8510348,0.95591891 4.2801056,1.3305907 3.8843996,1.7291413 3.7641769,1.850228 3.7372267,1.8980887 3.7372267,1.9905045 c 0,0.1083163 0.054449,0.1908268 0.1586139,0.2403582 0.037591,0.017873 0.063924,0.021332 0.1368208,0.017966 0.084741,-0.00392 0.096731,-0.00782 0.1957633,-0.06382 C 4.441244,2.0646661 4.8385343,1.920272 5.1460479,1.8514992 5.6098842,1.7477666 6.0852739,1.7271031 6.4284077,1.79576 6.83264,1.876642 7.2112702,2.0743675 7.5217266,2.3667038 7.9475257,2.7676521 8.1492342,3.292176 8.0853835,3.8324438 8.043701,4.1851354 7.8781142,4.7017847 7.7030496,5.0253653 7.5241493,5.356037 7.2557982,5.6338878 7.0223881,5.7301235 6.937085,5.7652925 6.5484425,5.8250835 6.2340007,5.8514131 6.0469758,5.8670741 5.7389373,5.8595531 5.6618956,5.8374491 l -0.053479,-0.015344 -0.00841,-0.078194 C 5.5737868,5.5005186 5.3970802,5.3242208 5.1051839,5.2502448 c -0.1382652,-0.035041 -0.4194284,-0.0344 -0.5663166,0.00128 -0.1469463,0.035705 -0.2187668,0.06744 -0.2659232,0.1175003 -0.068333,0.072539 -0.073996,0.09691 -0.073678,0.3170032 1.916e-4,0.1325631 -0.00376,0.1965438 -0.011844,0.1918849 C 4.180341,5.8738232 4.1764453,5.8318222 4.1780664,5.77691 4.1818752,5.6480329 4.164742,5.6386064 4.0300922,5.695513 3.9870259,5.713715 3.9441882,5.725886 3.9348958,5.722564 3.9243277,5.718774 3.9125323,5.684656 3.9033815,5.631319 3.8953455,5.584457 3.8833064,5.539885 3.8766416,5.532271 3.8547598,5.507275 3.8137921,5.517678 3.7378687,5.567507 c -0.041132,0.026996 -0.082009,0.046498 -0.09084,0.04334 -0.00883,-0.00317 -0.031622,-0.043938 -0.050644,-0.09062 -0.03123,-0.076634 -0.037922,-0.08519 -0.06894,-0.088103 -0.028111,-0.00264 -0.046159,0.00792 -0.099312,0.058151 -0.035724,0.033758 -0.073329,0.06138 -0.083563,0.06138 -0.010225,0 -0.039829,-0.032433 -0.065769,-0.072073 C 3.2312705,5.406948 3.2074156,5.3899 3.1692491,5.401299 3.1578109,5.404719 3.12723,5.439943 3.1012926,5.479582 3.075352,5.519222 3.0457592,5.551655 3.0355238,5.551655 3.025299,5.551655 2.9878687,5.524241 2.9523675,5.490733 2.8581893,5.401849 2.8225276,5.410302 2.779242,5.531771 2.768824,5.560981 2.756638,5.584884 2.752146,5.584884 2.738189,5.584884 2.655272,5.5292 2.655272,5.519826 2.655272,5.514946 2.679635,5.48967 2.709408,5.463655 2.780268,5.401751 2.777532,5.37677 2.696864,5.3491298 2.603948,5.3172928 2.600614,5.3101238 2.64914,5.2465064 2.714922,5.1602694 2.705167,5.1430268 2.580997,5.1260299 2.514485,5.1169299 2.510367,5.1031479 2.550921,5.0253523 2.587942,4.9543273 2.574495,4.9378963 2.475778,4.9335403 c -0.041806,-0.00184 -0.07984,-0.0069 -0.08452,-0.011254 -0.00469,-0.00436 -2.962e-4,-0.037206 0.00973,-0.073022 0.016469,-0.058784 0.016443,-0.0668 -2.601e-4,-0.08237 -0.016077,-0.014985 -0.027923,-0.015437 -0.090236,-0.00344 -0.039451,0.00758 -0.076948,0.010803 -0.083326,0.00713 -0.00637,-0.00368 -0.011597,-0.040745 -0.011597,-0.08238 0,-0.093228 -0.01253,-0.1006346 -0.1041326,-0.061548 -0.079882,0.034085 -0.092235,0.027432 -0.103374,-0.055661 -0.011354,-0.084726 -0.032271,-0.092709 -0.1146647,-0.043778 -0.035231,0.020923 -0.069875,0.038171 -0.076982,0.038325 -0.0071,1.531e-4 -0.023093,-0.027591 -0.035515,-0.061663 -0.034892,-0.09568 -0.069143,-0.102276 -0.1349222,-0.025984 -0.020687,0.023991 -0.045216,0.043624 -0.05451,0.043624 -0.00929,0 -0.035715,-0.027414 -0.05871,-0.060922 -0.056557,-0.082406 -0.080656,-0.079489 -0.1387192,0.016803 -0.014632,0.024264 -0.03212,0.044119 -0.038863,0.044119 -0.00673,0 -0.03725,-0.022942 -0.067791,-0.050983 -0.071631,-0.065761 -0.093462,-0.060816 -0.1286511,0.029144 -0.014233,0.036382 -0.031019,0.066148 -0.037305,0.066148 -0.0063,0 -0.039875,-0.017604 -0.074645,-0.039123 -0.037899,-0.023454 -0.0708512,-0.036391 -0.0822797,-0.032304 -0.0184507,0.00658 -0.0228646,0.018687 -0.03928,0.107549 C 0.9209974,4.6248623 0.91315,4.6461353 0.9077941,4.6492173 0.9024511,4.6522973 0.867792,4.6423573 0.8308006,4.6270983 0.7368788,4.5883823 0.72036656,4.5982873 0.71576682,4.6961003 l -0.00353,0.074647 -0.047537,-0.00471 c -0.0261445,-0.0026 -0.0662517,-0.00507 -0.0891291,-0.00554 -0.0409108,-8.034e-4 -0.0415781,-8.93e-5 -0.0405986,0.043485 5.3881e-4,0.024367 0.003229,0.061753 0.005944,0.083076 l 0.004946,0.03877 -0.0800878,0.00328 c -0.10494046,0.00429 -0.11556615,0.019677 -0.0740291,0.1072207 0.0163607,0.034482 0.0270393,0.066776 0.0237304,0.071765 -0.003305,0.00498 -0.0261294,0.012302 -0.0507117,0.016247 -0.0953391,0.015299 -0.10830616,0.019413 -0.11538635,0.036613 -0.0044,0.010677 0.009766,0.041754 0.0355092,0.077883 0.0235523,0.033064 0.0404473,0.065888 0.037544,0.072939 -0.002908,0.00704 -0.0352781,0.022325 -0.0719423,0.03394 -0.0917077,0.029051 -0.0965488,0.050101 -0.026713,0.1161872 0.0300838,0.028468 0.0546895,0.056575 0.0546777,0.062457 -1.169e-5,0.00589 -0.0254138,0.025436 -0.0564483,0.043449 -0.0956283,0.055505 -0.0966318,0.069478 -0.008886,0.1237765 0.0359486,0.022247 0.0653611,0.046986 0.0653611,0.054974 0,0.00797 -0.0212907,0.030471 -0.0473074,0.04996 -0.0514252,0.038519 -0.0684486,0.069761 -0.0495629,0.09097 0.006616,0.00744 0.0418283,0.022968 0.0782265,0.034498 0.0364014,0.01153 0.0661787,0.026455 0.0661787,0.033161 0,0.00669 -0.0188841,0.038331 -0.0419676,0.070278 -0.0546745,0.075675 -0.0451299,0.097417 0.0475102,0.1082041 0.0891495,0.01038 0.0962864,0.021898 0.0597155,0.09635 -0.0420009,0.085512 -0.0340625,0.097059 0.0667334,0.097059 0.0450533,0 0.081916,0.0026 0.081916,0.00578 0,0.017165 -0.0651358,0.093916 -0.0796994,0.093916 -0.00942,0 -0.044005,-0.027414 -0.0768573,-0.060922 -0.0398347,-0.040633 -0.0689897,-0.060922 -0.0875445,-0.060922 -0.0330325,0 -0.0377114,0.00595 -0.0783534,0.099567 -0.0172206,0.039667 -0.0393227,0.073621 -0.0491176,0.075455 -0.00979,0.00184 -0.048733,-0.016858 -0.08652947,-0.041537 -0.10876087,-0.071007 -0.13745308,-0.060787 -0.15392142,0.054818 -0.0047733,0.033505 -0.01359967,0.069646 -0.01961167,0.080307 -0.0195606,0.034676 -0.04266703,0.021921 -0.05016607,-0.027691 z"
         id="path4971" />
      <path
         style="display:inline;opacity:0;fill:#ffdf8a;fill-opacity:1;stroke:#ffe6ab;stroke-width:0.71999;stroke-miterlimit:4;stroke-dasharray:none;stroke-opacity:1"
         d="M -0.14186431,6.5458006 C -0.18530206,6.2584307 -0.19266353,5.7023664 -0.15707746,5.3965919 -0.03355897,4.335231 0.38130541,3.4134266 1.10915,2.5831076 1.245361,2.4277193 1.5819098,2.1089152 1.7564849,1.969904 2.6246698,1.2785825 3.6280991,0.86943741 4.7765459,0.73848421 c 0.1470388,-0.0167654 0.7077237,-0.0364719 0.695208,-0.0244326 -0.00327,0.003141 -0.052949,0.0237729 -0.1104025,0.0458408 C 4.8510348,0.95591891 4.2801056,1.3305907 3.8843996,1.7291413 3.7641769,1.850228 3.7372267,1.8980887 3.7372267,1.9905045 c 0,0.1083163 0.054449,0.1908268 0.1586139,0.2403582 0.037591,0.017873 0.063924,0.021332 0.1368208,0.017966 0.084741,-0.00392 0.096731,-0.00782 0.1957633,-0.06382 C 4.441244,2.0646661 4.8385343,1.920272 5.1460479,1.8514992 5.6098842,1.7477666 6.0852739,1.7271031 6.4284077,1.79576 6.83264,1.876642 7.2112702,2.0743675 7.5217266,2.3667038 7.9475257,2.7676521 8.1492342,3.292176 8.0853835,3.8324438 8.043701,4.1851354 7.8781142,4.7017847 7.7030496,5.0253653 7.5241493,5.356037 7.2557982,5.6338878 7.0223881,5.7301235 6.937085,5.7652925 6.5484425,5.8250835 6.2340007,5.8514131 6.0469758,5.8670741 5.7389373,5.8595531 5.6618956,5.8374491 l -0.053479,-0.015344 -0.00841,-0.078194 C 5.5737868,5.5005186 5.3970802,5.3242208 5.1051839,5.2502448 c -0.1382652,-0.035041 -0.4194284,-0.0344 -0.5663166,0.00128 -0.1469463,0.035705 -0.2187668,0.06744 -0.2659232,0.1175003 -0.068333,0.072539 -0.073996,0.09691 -0.073678,0.3170032 1.916e-4,0.1325631 -0.00376,0.1965438 -0.011844,0.1918849 C 4.180341,5.8738232 4.1764453,5.8318222 4.1780664,5.77691 4.1818752,5.6480329 4.164742,5.6386064 4.0300922,5.695513 3.9870259,5.713715 3.9441882,5.725886 3.9348958,5.722564 3.9243277,5.718774 3.9125323,5.684656 3.9033815,5.631319 3.8953455,5.584457 3.8833064,5.539885 3.8766416,5.532271 3.8547598,5.507275 3.8137921,5.517678 3.7378687,5.567507 c -0.041132,0.026996 -0.082009,0.046498 -0.09084,0.04334 -0.00883,-0.00317 -0.031622,-0.043938 -0.050644,-0.09062 -0.03123,-0.076634 -0.037922,-0.08519 -0.06894,-0.088103 -0.028111,-0.00264 -0.046159,0.00792 -0.099312,0.058151 -0.035724,0.033758 -0.073329,0.06138 -0.083563,0.06138 -0.010225,0 -0.039829,-0.032433 -0.065769,-0.072073 C 3.2312705,5.406948 3.2074156,5.3899 3.1692491,5.401299 3.1578109,5.404719 3.12723,5.439943 3.1012926,5.479582 3.075352,5.519222 3.0457592,5.551655 3.0355238,5.551655 3.025299,5.551655 2.9878687,5.524241 2.9523675,5.490733 2.8581893,5.401849 2.8225276,5.410302 2.779242,5.531771 2.768824,5.560981 2.756638,5.584884 2.752146,5.584884 2.738189,5.584884 2.655272,5.5292 2.655272,5.519826 2.655272,5.514946 2.679635,5.48967 2.709408,5.463655 2.780268,5.401751 2.777532,5.37677 2.696864,5.3491298 2.603948,5.3172928 2.600614,5.3101238 2.64914,5.2465064 2.714922,5.1602694 2.705167,5.1430268 2.580997,5.1260299 2.514485,5.1169299 2.510367,5.1031479 2.550921,5.0253523 2.587942,4.9543273 2.574495,4.9378963 2.475778,4.9335403 c -0.041806,-0.00184 -0.07984,-0.0069 -0.08452,-0.011254 -0.00469,-0.00436 -2.962e-4,-0.037206 0.00973,-0.073022 0.016469,-0.058784 0.016443,-0.0668 -2.601e-4,-0.08237 -0.016077,-0.014985 -0.027923,-0.015437 -0.090236,-0.00344 -0.039451,0.00758 -0.076948,0.010803 -0.083326,0.00713 -0.00637,-0.00368 -0.011597,-0.040745 -0.011597,-0.08238 0,-0.093228 -0.01253,-0.1006346 -0.1041326,-0.061548 -0.079882,0.034085 -0.092235,0.027432 -0.103374,-0.055661 -0.011354,-0.084726 -0.032271,-0.092709 -0.1146647,-0.043778 -0.035231,0.020923 -0.069875,0.038171 -0.076982,0.038325 -0.0071,1.531e-4 -0.023093,-0.027591 -0.035515,-0.061663 -0.034892,-0.09568 -0.069143,-0.102276 -0.1349222,-0.025984 -0.020687,0.023991 -0.045216,0.043624 -0.05451,0.043624 -0.00929,0 -0.035715,-0.027414 -0.05871,-0.060922 -0.056557,-0.082406 -0.080656,-0.079489 -0.1387192,0.016803 -0.014632,0.024264 -0.03212,0.044119 -0.038863,0.044119 -0.00673,0 -0.03725,-0.022942 -0.067791,-0.050983 -0.071631,-0.065761 -0.093462,-0.060816 -0.1286511,0.029144 -0.014233,0.036382 -0.031019,0.066148 -0.037305,0.066148 -0.0063,0 -0.039875,-0.017604 -0.074645,-0.039123 -0.037899,-0.023454 -0.0708512,-0.036391 -0.0822797,-0.032304 -0.0184507,0.00658 -0.0228646,0.018687 -0.03928,0.107549 C 0.9209974,4.6248623 0.91315,4.6461353 0.9077941,4.6492173 0.9024511,4.6522973 0.867792,4.6423573 0.8308006,4.6270983 0.7368788,4.5883823 0.72036656,4.5982873 0.71576682,4.6961003 l -0.00353,0.074647 -0.047537,-0.00471 c -0.0261445,-0.0026 -0.0662517,-0.00507 -0.0891291,-0.00554 -0.0409108,-8.034e-4 -0.0415781,-8.93e-5 -0.0405986,0.043485 5.3881e-4,0.024367 0.003229,0.061753 0.005944,0.083076 l 0.004946,0.03877 -0.0800878,0.00328 c -0.10494046,0.00429 -0.11556615,0.019677 -0.0740291,0.1072207 0.0163607,0.034482 0.0270393,0.066776 0.0237304,0.071765 -0.003305,0.00498 -0.0261294,0.012302 -0.0507117,0.016247 -0.0953391,0.015299 -0.10830616,0.019413 -0.11538635,0.036613 -0.0044,0.010677 0.009766,0.041754 0.0355092,0.077883 0.0235523,0.033064 0.0404473,0.065888 0.037544,0.072939 -0.002908,0.00704 -0.0352781,0.022325 -0.0719423,0.03394 -0.0917077,0.029051 -0.0965488,0.050101 -0.026713,0.1161872 0.0300838,0.028468 0.0546895,0.056575 0.0546777,0.062457 -1.169e-5,0.00589 -0.0254138,0.025436 -0.0564483,0.043449 -0.0956283,0.055505 -0.0966318,0.069478 -0.008886,0.1237765 0.0359486,0.022247 0.0653611,0.046986 0.0653611,0.054974 0,0.00797 -0.0212907,0.030471 -0.0473074,0.04996 -0.0514252,0.038519 -0.0684486,0.069761 -0.0495629,0.09097 0.006616,0.00744 0.0418283,0.022968 0.0782265,0.034498 0.0364014,0.01153 0.0661787,0.026455 0.0661787,0.033161 0,0.00669 -0.0188841,0.038331 -0.0419676,0.070278 -0.0546745,0.075675 -0.0451299,0.097417 0.0475102,0.1082041 0.0891495,0.01038 0.0962864,0.021898 0.0597155,0.09635 -0.0420009,0.085512 -0.0340625,0.097059 0.0667334,0.097059 0.0450533,0 0.081916,0.0026 0.081916,0.00578 0,0.017165 -0.0651358,0.093916 -0.0796994,0.093916 -0.00942,0 -0.044005,-0.027414 -0.0768573,-0.060922 -0.0398347,-0.040633 -0.0689897,-0.060922 -0.0875445,-0.060922 -0.0330325,0 -0.0377114,0.00595 -0.0783534,0.099567 -0.0172206,0.039667 -0.0393227,0.073621 -0.0491176,0.075455 -0.00979,0.00184 -0.048733,-0.016858 -0.08652947,-0.041537 -0.10876087,-0.071007 -0.13745308,-0.060787 -0.15392142,0.054818 -0.0047733,0.033505 -0.01359967,0.069646 -0.01961167,0.080307 -0.0195606,0.034676 -0.04266703,0.021921 -0.05016607,-0.027691 z"
         id="path8479" />
      <path
         style="display:inline;fill:none;stroke:#ffffff;stroke-width:0.71999;stroke-linecap:round;stroke-linejoin:miter;stroke-miterlimit:4;stroke-dasharray:none;stroke-opacity:1;paint-order:normal"
         d="M 8.3989378,1.1633742 C 6.0288805,0.10320486 3.5743945,1.9855872 4.0421385,1.895719 6.2035821,0.98583148 8.4180292,1.8003192 8.3359347,3.9023691 8.2171593,5.3269225 7.5688238,5.6581062 6.9739911,5.8751878 6.4658729,6.0606233 5.3013691,6.2316139 5.3410916,5.7457993 5.372548,5.3610859 4.2183811,5.3419644 3.9407751,5.4569385"
         id="path8940-6-9-4"
         sodipodi:nodetypes="cccssc" />
      <path
         style="display:inline;fill:none;stroke:#ffffff;stroke-width:0.71999;stroke-linecap:round;stroke-linejoin:miter;stroke-miterlimit:4;stroke-dasharray:none;stroke-opacity:1"
         d="M 5.3240069,5.6501294 C 5.425846,6.3138026 4.7109491,10.946344 4.6173325,11.330661"
         id="path9629-56-0-8"
         sodipodi:nodetypes="cc" />
      <path
         style="display:inline;fill:none;fill-opacity:1;stroke:#ffffff;stroke-width:0.71999;stroke-linecap:round;stroke-linejoin:miter;stroke-miterlimit:4;stroke-dasharray:none;stroke-opacity:1"
         d="M 3.9407751,5.4569385 C 3.9307113,5.5763293 3.9505922,5.8442784 3.923923,6.1889162 3.8097517,7.6636038 3.3399562,10.672517 3.2640692,10.984049"
         id="path9629-6-9-8-0"
         sodipodi:nodetypes="csc" />
      <path
         style="display:inline;fill:none;fill-opacity:1;stroke:#ffffff;stroke-width:0.71999;stroke-linecap:butt;stroke-linejoin:miter;stroke-miterlimit:4;stroke-dasharray:none;stroke-opacity:1"
         d="m 7.4339796,5.5790867 c 1.0058909,0.5069766 1.800626,2.8264745 1.8642505,4.3518055"
         id="path9629-5-37-8-4"
         sodipodi:nodetypes="cc" />
      <path
         style="display:inline;fill:none;fill-opacity:1;stroke:#ffffff;stroke-width:0.71999;stroke-linecap:butt;stroke-linejoin:miter;stroke-miterlimit:4;stroke-dasharray:none;stroke-opacity:1"
         d="M 8.5791661,3.6681664 C 9.643699,3.6417434 10.282821,3.7402474 11.050156,4.2659375"
         id="path9629-5-3-4-5-2"
         sodipodi:nodetypes="cc" />
      <ellipse
         style="display:inline;fill:none;stroke:#ffffff;stroke-width:0.695099;stroke-miterlimit:4;stroke-dasharray:none;stroke-opacity:1"
         id="path6366-5-3-0"
         cy="5.8208332"
         cx="5.8208327"
         rx="5.473"
         ry="5.4117422"
         clip-path="url(#clipPath2033)"
         transform="matrix(1.0729012,0,0,1,-0.82333365,0)" />
      <ellipse
         style="display:inline;fill:#ffffff;fill-opacity:1;stroke-width:0.71999;stroke-miterlimit:4;stroke-dasharray:none"
         id="path3561"
         cx="6.7998867"
         cy="7.4261813"
         rx="0.4492082"
         ry="0.41869664" />
      <ellipse
         style="display:inline;fill:#ffffff;fill-opacity:1;stroke:none;stroke-width:0.71999;stroke-miterlimit:4;stroke-dasharray:none;stroke-opacity:1"
         id="path3561-3"
         cx="9.5784779"
         cy="5.4214716"
         rx="0.4492082"
         ry="0.41869664" />
      <path
         style="fill:none;stroke:#ffffff;stroke-width:0.688813;stroke-linecap:butt;stroke-linejoin:miter;stroke-miterlimit:4;stroke-dasharray:none;stroke-opacity:1"
         d="m 3.2640692,10.984049 c 0,0 0.5427895,0.756833 1.3532632,0.346612"
         id="path2628" />
      <ellipse
         style="fill:#ffffff;fill-opacity:1;stroke-width:0.707209;stroke-linecap:round;stroke-linejoin:miter;paint-order:normal"
         id="path2800"
         cx="-3.2757418"
         cy="2.9057987"
         transform="matrix(-0.96297095,0.26960519,0.28946934,0.95718729,0,0)"
         rx="0.38774261"
         ry="0.37533104" />
    </g>
  </g>
</svg>
